# xmcd
#
# Track frame offsets:
# 150
# 11554
# 25807
# 44944
# 60647
# 72807
# 90191
# 104428
# 123183
# 146164
#
# Disc length: 2223 seconds
#
# Revision: 1
# Processed by: cddbd v1.5.2PL0 Copyright (c) Steve Scherf et al.
# Submitted via: Easy CD Ripper 2.3.10
#
DISCID=8508ad0a
DTITLE=Assorted - Soul Hits 1
DYEAR=1994
DGENRE=Alternative
TTITLE0=You Said a Bad Word
TTITLE1=You're the Man
TTITLE2=Walkin in the Rain
TTITLE3=Cyclone
TTITLE4=Funk Factory
TTITLE5=Womans Got to Have It
TTITLE6=There It Is
TTITLE7=Outa Space
TTITLE8=Two Hour Night Rider
TTITLE9=First Time Ever I Saw Your Face
EXTD=
EXTT0=
EXTT1=
EXTT2=
EXTT3=
EXTT4=
EXTT5=
EXTT6=
EXTT7=
EXTT8=
EXTT9=
PLAYORDER=
